<?xml version="1.0" standalone="no"?>
<!DOCTYPE svg PUBLIC "-//W3C//DTD SVG 20010904//EN"
 "http://www.w3.org/TR/2001/REC-SVG-20010904/DTD/svg10.dtd">
<svg version="1.0" xmlns="http://www.w3.org/2000/svg"
 width="1280.000000pt" height="1280.000000pt" viewBox="0 0 1280.000000 1280.000000"
 preserveAspectRatio="xMidYMid meet">
<metadata>
Created by potrace 1.15, written by Peter Selinger 2001-2017
</metadata>
<g transform="translate(0.000000,1280.000000) scale(0.100000,-0.100000)"
fill="#000000" stroke="none">
<path d="M6380 9807 c-9 -18 -58 -111 -109 -207 -52 -96 -109 -202 -126 -235
-18 -33 -65 -121 -105 -195 -40 -74 -107 -200 -150 -280 -43 -80 -107 -199
-142 -265 -91 -168 -217 -405 -271 -505 -24 -47 -74 -139 -109 -205 -131 -242
-309 -575 -408 -760 -99 -185 -277 -518 -408 -760 -35 -66 -85 -158 -109 -205
-25 -47 -62 -116 -83 -155 -21 -38 -55 -101 -75 -140 -21 -38 -71 -133 -113
-210 -41 -77 -105 -196 -142 -265 -37 -69 -102 -190 -145 -270 -43 -80 -94
-176 -115 -215 -99 -185 -277 -518 -408 -760 -35 -66 -85 -158 -109 -205 -25
-47 -70 -131 -99 -187 -54 -100 -115 -255 -128 -323 -3 -19 -9 -46 -12 -60
-12 -50 -23 -237 -18 -315 16 -293 154 -586 412 -874 191 -214 493 -429 830
-592 78 -38 145 -69 148 -69 3 0 24 -8 47 -18 39 -17 59 -25 165 -67 217 -85
613 -186 927 -235 639 -100 1241 -92 1900 25 88 16 222 46 380 86 80 20 330
98 395 123 75 29 127 50 167 68 23 10 45 18 48 18 19 0 308 149 420 217 129
78 307 207 417 302 70 61 227 236 288 321 156 220 252 473 265 700 4 81 -7
256 -19 310 -3 14 -9 41 -12 60 -13 68 -74 223 -128 323 -29 56 -74 140 -99
187 -24 47 -74 139 -109 205 -131 242 -309 575 -408 760 -21 39 -72 135 -115
215 -43 80 -108 201 -145 270 -37 69 -101 188 -142 265 -42 77 -92 172 -113
210 -20 39 -54 102 -75 140 -21 39 -58 108 -83 155 -24 47 -74 139 -109 205
-129 239 -304 565 -408 760 -21 39 -70 131 -110 205 -40 74 -107 200 -150 280
-43 80 -108 201 -145 270 -37 69 -88 163 -112 210 -54 100 -180 337 -271 505
-35 66 -99 185 -142 265 -43 80 -110 206 -150 280 -40 74 -87 162 -105 195
-17 33 -74 139 -126 235 -51 96 -100 189 -109 207 -8 18 -17 32 -20 32 -3 0
-12 -14 -20 -32z"/>
</g>
</svg>
